<?xml version="1.0" standalone="no"?>
<!DOCTYPE svg PUBLIC "-//W3C//DTD SVG 20010904//EN"
 "http://www.w3.org/TR/2001/REC-SVG-20010904/DTD/svg10.dtd">
<svg version="1.0" xmlns="http://www.w3.org/2000/svg"
 width="3400.000000pt" height="1841.000000pt" viewBox="0 0 3400.000000 1841.000000"
 preserveAspectRatio="xMidYMid meet">
<metadata>
Created by potrace 1.16, written by Peter Selinger 2001-2019
</metadata>
<g transform="translate(0.000000,1841.000000) scale(0.100000,-0.100000)"
fill="#000000" stroke="none">
<path d="M2002 9208 l3 -7203 14995 0 14995 0 3 7203 2 7202 -15000 0 -15000
0 2 -7202z m29656 0 l-3 -6863 -14655 0 -14655 0 -3 6863 -2 6862 14660 0
14660 0 -2 -6862z"/>
<path d="M13020 14520 l0 -30 555 0 555 0 0 -3290 0 -3290 -555 0 -555 0 0
-30 0 -30 1705 0 1705 0 0 30 0 30 -555 0 -555 0 0 1630 0 1630 1680 0 1680 0
0 -1630 0 -1630 -555 0 -555 0 0 -30 0 -30 1705 0 1705 0 0 30 0 30 -555 0
-555 0 0 3290 0 3290 555 0 555 0 0 30 0 30 -1705 0 -1705 0 0 -30 0 -30 555
0 555 0 0 -1630 0 -1630 -1680 0 -1680 0 0 1630 0 1630 556 0 555 0 -3 28 -3
27 -1702 3 -1703 2 0 -30z"/>
<path d="M7463 5758 c-88 -222 -265 -667 -394 -990 l-233 -588 -98 0 c-80 0
-98 -3 -98 -15 0 -13 33 -15 235 -15 202 0 235 2 235 15 0 12 -19 15 -115 15
-63 0 -115 3 -115 8 0 4 58 156 129 337 l129 330 335 3 334 2 131 -337 130
-338 -129 -3 c-106 -2 -129 -5 -129 -17 0 -13 56 -15 410 -15 358 0 410 2 410
15 0 12 -18 15 -97 15 l-98 0 -395 987 c-217 543 -400 988 -406 990 -6 2 -81
-174 -171 -399z m171 -466 c86 -216 156 -395 156 -398 0 -2 -142 -4 -316 -4
-296 0 -316 1 -311 18 2 9 68 179 147 377 78 198 146 371 151 384 5 13 11 22
14 20 2 -3 74 -181 159 -397z"/>
<path d="M23145 6111 c-273 -68 -507 -256 -632 -506 -151 -300 -152 -670 -3
-965 111 -220 303 -396 525 -481 226 -88 450 -77 666 31 218 109 362 256 468
481 63 134 90 243 98 395 13 257 -61 495 -216 701 -128 171 -339 304 -551 349
-91 19 -268 17 -355 -5z m337 -22 c215 -45 320 -200 375 -551 26 -164 26 -684
0 -846 -21 -133 -57 -264 -93 -334 -77 -153 -223 -228 -438 -228 -188 0 -324
67 -408 199 -99 157 -154 567 -129 972 22 367 78 567 190 679 56 56 109 85
189 104 70 17 242 20 314 5z"/>
<path d="M26256 6109 c-144 -35 -301 -121 -421 -231 -153 -140 -269 -364 -305
-590 -18 -113 -9 -331 19 -438 25 -96 90 -240 148 -327 116 -176 306 -317 523
-389 76 -25 99 -28 225 -28 164 -1 241 17 383 88 554 278 731 994 378 1524
-126 190 -362 350 -583 397 -97 21 -270 18 -367 -6z m357 -24 c268 -70 369
-302 384 -880 14 -542 -61 -858 -232 -987 -74 -56 -150 -79 -280 -85 -430 -20
-579 233 -579 982 1 630 104 896 374 967 83 22 255 23 333 3z"/>
<path d="M29419 6096 c-3 -3 -187 -8 -410 -12 -222 -3 -405 -10 -407 -14 -2
-5 52 -11 120 -12 l123 -3 3 -937 2 -938 -125 0 c-98 0 -125 -3 -125 -13 0
-11 89 -15 483 -21 534 -7 574 -4 752 55 306 102 518 335 607 667 27 101 29
310 4 426 -44 201 -146 379 -304 528 -185 174 -362 249 -647 273 -39 3 -73 3
-76 1z m198 -52 c32 -8 91 -31 131 -51 218 -109 314 -336 329 -783 14 -419
-57 -727 -202 -879 -60 -63 -152 -118 -244 -145 -58 -17 -270 -22 -390 -10
l-61 7 0 933 0 933 43 5 c128 18 304 13 394 -10z"/>
<path d="M3704 6081 c-16 -16 11 -21 116 -21 l120 0 2 -923 c2 -508 2 -931 0
-940 -3 -15 -19 -17 -123 -17 -99 0 -119 -3 -119 -15 0 -13 54 -15 430 -15
376 0 430 2 430 15 0 13 -22 15 -140 15 l-140 0 0 475 0 475 390 0 390 0 0
-475 0 -475 -140 0 c-118 0 -140 -2 -140 -15 0 -13 54 -15 430 -15 376 0 430
2 430 15 0 13 -21 15 -125 15 l-125 0 2 938 3 937 123 3 c80 2 122 6 120 13
-2 6 -7 10 -11 10 -4 -1 -196 -1 -427 -1 -265 0 -420 -4 -420 -10 0 -5 57 -11
138 -12 l137 -3 0 -445 0 -445 -388 -3 -387 -2 2 447 3 448 138 3 c86 2 137 6
135 12 -3 10 -844 20 -854 11z"/>
<path d="M9613 6082 c-145 -3 -170 -22 -29 -22 l94 0 392 -982 c215 -541 397
-989 405 -997 11 -11 15 -10 23 5 5 11 132 327 282 704 150 377 325 816 389
975 l116 290 103 3 c66 2 102 7 100 13 -5 14 -471 14 -476 -1 -2 -6 36 -10
112 -10 86 0 116 -3 116 -12 0 -17 -593 -1508 -600 -1508 -6 0 -580 1464 -587
1498 l-5 22 146 0 c91 0 146 4 146 10 0 6 -51 10 -132 10 -73 0 -209 2 -303 3
-93 1 -225 1 -292 -1z"/>
<path d="M12504 6081 c-15 -16 11 -21 119 -23 l122 -3 3 -937 2 -938 -125 0
c-104 0 -125 -2 -125 -15 0 -13 96 -15 805 -15 l805 0 0 270 c0 219 -3 270
-13 270 -8 0 -19 -19 -26 -42 -21 -73 -98 -220 -145 -279 -55 -69 -131 -122
-222 -157 -67 -25 -76 -26 -346 -30 l-278 -4 0 476 0 476 63 0 c136 -1 271
-49 322 -116 41 -53 83 -152 91 -210 4 -36 11 -54 20 -54 12 0 14 65 14 395 0
313 -3 395 -13 395 -7 0 -17 -24 -24 -59 -40 -211 -158 -304 -398 -313 l-70
-3 0 445 0 445 130 3 c393 9 534 -62 667 -335 27 -57 54 -103 59 -103 5 0 9
97 9 233 l0 232 -721 0 c-396 0 -723 -2 -725 -4z"/>
<path d="M15310 6073 c0 -10 31 -13 120 -13 l120 0 0 -940 0 -940 -120 0
c-100 0 -120 -2 -120 -15 0 -13 36 -15 260 -15 224 0 260 2 260 15 0 13 -21
15 -125 15 l-125 0 0 837 c0 507 4 833 9 828 8 -8 733 -1039 1110 -1577 53
-76 102 -138 108 -138 10 0 13 202 15 963 l3 962 123 3 c77 2 122 6 120 13 -5
16 -518 17 -518 2 0 -10 31 -13 120 -13 l120 0 0 -667 c0 -366 -3 -663 -7
-659 -4 4 -219 309 -478 677 l-470 670 -263 2 c-204 2 -262 -1 -262 -10z"/>
<path d="M18094 6081 c-15 -15 7 -21 92 -23 l96 -3 396 -989 c219 -545 402
-991 408 -993 5 -2 136 311 289 694 153 384 293 733 310 776 l31 77 26 -62
c14 -35 153 -384 308 -776 157 -394 288 -711 294 -709 6 2 189 448 408 993
l396 989 101 3 c56 1 101 7 101 12 0 6 -10 10 -22 10 -390 5 -448 4 -448 -7 0
-10 30 -13 115 -13 63 0 115 -2 115 -5 0 -18 -609 -1524 -614 -1517 -6 11
-577 1481 -583 1505 -5 16 6 17 141 17 110 0 146 3 146 13 0 16 -843 14 -848
-2 -2 -6 34 -11 93 -13 l97 -3 78 -194 77 -194 -37 -96 c-140 -357 -402 -1017
-409 -1028 -5 -9 -119 272 -304 744 -163 417 -297 762 -297 766 0 4 68 7 151
7 97 0 149 4 147 10 -3 10 -844 20 -854 11z"/>
</g>
</svg>
